HIERARCHY
ROOT mixamorig:Hips
{
	OFFSET 0.000000 106.130402 -0.000000
	CHANNELS 6 Xposition Yposition Zposition Xrotation Yrotation Zrotation
	JOINT mixamorig:Spine
	{
		OFFSET -0.038117 9.490501 -1.392100
		CHANNELS 6 Xposition Yposition Zposition Xrotation Yrotation Zrotation
		JOINT mixamorig:Spine1
		{
			OFFSET -0.044226 11.072235 -1.624061
			CHANNELS 3 Xrotation Yrotation Zrotation
			JOINT mixamorig:Spine2
			{
				OFFSET -0.050544 12.653999 -1.856072
				CHANNELS 3 Xrotation Yrotation Zrotation
				JOINT mixamorig:Neck
				{
					OFFSET -0.056883 14.235809 -2.088087
					CHANNELS 6 Xposition Yposition Zposition Xrotation Yrotation Zrotation
					JOINT mixamorig:Head
					{
						OFFSET 0.000004 3.280197 0.313303
						CHANNELS 6 Xposition Yposition Zposition Xrotation Yrotation Zrotation
						JOINT mixamorig:HeadTop_End
						{
							OFFSET 0.000030 25.653503 2.450522
							CHANNELS 6 Xposition Yposition Zposition Xrotation Yrotation Zrotation
							End Site
							{
								OFFSET 0.000031 25.770279 0.000023
							}
						}
					}
				}
				JOINT mixamorig:LeftShoulder
				{
					OFFSET 6.728814 11.756592 -2.058488
					CHANNELS 6 Xposition Yposition Zposition Xrotation Yrotation Zrotation
					JOINT mixamorig:LeftArm
					{
						OFFSET 14.094160 -3.181030 0.059262
						CHANNELS 3 Xrotation Yrotation Zrotation
						JOINT mixamorig:LeftForeArm
						{
							OFFSET 23.160299 0.000000 0.000000
							CHANNELS 3 Xrotation Yrotation Zrotation
							JOINT mixamorig:LeftHand
							{
								OFFSET 24.071800 0.000000 0.000000
								CHANNELS 3 Xrotation Yrotation Zrotation
								JOINT mixamorig:LeftHandThumb1
								{
									OFFSET 4.173401 -1.926498 1.509006
									CHANNELS 6 Xposition Yposition Zposition Xrotation Yrotation Zrotation
									JOINT mixamorig:LeftHandThumb2
									{
										OFFSET 2.998001 -1.730896 1.730896
										CHANNELS 3 Xrotation Yrotation Zrotation
										JOINT mixamorig:LeftHandThumb3
										{
											OFFSET 3.648811 -2.106644 2.106645
											CHANNELS 3 Xrotation Yrotation Zrotation
											JOINT mixamorig:LeftHandThumb4
											{
												OFFSET 2.967018 -1.712997 1.713007
												CHANNELS 3 Xrotation Yrotation Zrotation
												End Site
												{
													OFFSET 2.967010 -1.713013 1.713006
												}
											}
										}
									}
								}
								JOINT mixamorig:LeftHandIndex1
								{
									OFFSET 14.669403 -0.398788 2.855501
									CHANNELS 6 Xposition Yposition Zposition Xrotation Yrotation Zrotation
									JOINT mixamorig:LeftHandIndex2
									{
										OFFSET 3.248596 0.000000 0.000000
										CHANNELS 3 Xrotation Yrotation Zrotation
										JOINT mixamorig:LeftHandIndex3
										{
											OFFSET 2.659599 0.000000 0.000000
											CHANNELS 3 Xrotation Yrotation Zrotation
											JOINT mixamorig:LeftHandIndex4
											{
												OFFSET 3.633202 0.000000 0.000000
												CHANNELS 3 Xrotation Yrotation Zrotation
												End Site
												{
													OFFSET 3.633194 0.000000 0.000000
												}
											}
										}
									}
								}
								JOINT mixamorig:LeftHandMiddle1
								{
									OFFSET 14.409798 0.000000 0.000000
									CHANNELS 6 Xposition Yposition Zposition Xrotation Yrotation Zrotation
									JOINT mixamorig:LeftHandMiddle2
									{
										OFFSET 3.259102 0.000000 0.000000
										CHANNELS 3 Xrotation Yrotation Zrotation
										JOINT mixamorig:LeftHandMiddle3
										{
											OFFSET 2.639900 0.000000 0.000000
											CHANNELS 3 Xrotation Yrotation Zrotation
											JOINT mixamorig:LeftHandMiddle4
											{
												OFFSET 3.673904 0.000000 0.000000
												CHANNELS 3 Xrotation Yrotation Zrotation
												End Site
												{
													OFFSET 3.673904 0.000000 0.000000
												}
											}
										}
									}
								}
								JOINT mixamorig:LeftHandRing1
								{
									OFFSET 13.191498 0.321991 -3.304901
									CHANNELS 6 Xposition Yposition Zposition Xrotation Yrotation Zrotation
									JOINT mixamorig:LeftHandRing2
									{
										OFFSET 2.717606 0.000000 0.000000
										CHANNELS 3 Xrotation Yrotation Zrotation
										JOINT mixamorig:LeftHandRing3
										{
											OFFSET 2.134499 0.000000 0.000000
											CHANNELS 3 Xrotation Yrotation Zrotation
											JOINT mixamorig:LeftHandRing4
											{
												OFFSET 2.786896 0.000000 0.000000
												CHANNELS 3 Xrotation Yrotation Zrotation
												End Site
												{
													OFFSET 2.786896 0.000000 0.000000
												}
											}
										}
									}
								}
								JOINT mixamorig:LeftHandPinky1
								{
									OFFSET 11.636398 -0.516617 -5.614198
									CHANNELS 6 Xposition Yposition Zposition Xrotation Yrotation Zrotation
									JOINT mixamorig:LeftHandPinky2
									{
										OFFSET 1.559402 0.000000 0.000000
										CHANNELS 3 Xrotation Yrotation Zrotation
										JOINT mixamorig:LeftHandPinky3
										{
											OFFSET 1.540604 0.000000 0.000000
											CHANNELS 3 Xrotation Yrotation Zrotation
											JOINT mixamorig:LeftHandPinky4
											{
												OFFSET 1.668694 0.000000 0.000000
												CHANNELS 3 Xrotation Yrotation Zrotation
												End Site
												{
													OFFSET 1.668701 0.000000 0.000000
												}
											}
										}
									}
								}
							}
						}
					}
				}
				JOINT mixamorig:RightShoulder
				{
					OFFSET -6.728786 11.756714 -2.058491
					CHANNELS 6 Xposition Yposition Zposition Xrotation Yrotation Zrotation
					JOINT mixamorig:RightArm
					{
						OFFSET -14.094133 -3.181152 0.059256
						CHANNELS 3 Xrotation Yrotation Zrotation
						JOINT mixamorig:RightForeArm
						{
							OFFSET -23.160299 0.000000 0.000000
							CHANNELS 3 Xrotation Yrotation Zrotation
							JOINT mixamorig:RightHand
							{
								OFFSET -24.071701 0.000000 0.000000
								CHANNELS 3 Xrotation Yrotation Zrotation
								JOINT mixamorig:RightHandThumb1
								{
									OFFSET -4.173401 -1.930939 1.503952
									CHANNELS 6 Xposition Yposition Zposition Xrotation Yrotation Zrotation
									JOINT mixamorig:RightHandThumb2
									{
										OFFSET -2.998001 -1.730896 1.730896
										CHANNELS 3 Xrotation Yrotation Zrotation
										JOINT mixamorig:RightHandThumb3
										{
											OFFSET -3.648582 -2.106506 2.106510
											CHANNELS 3 Xrotation Yrotation Zrotation
											JOINT mixamorig:RightHandThumb4
											{
												OFFSET -2.967010 -1.713013 1.713007
												CHANNELS 3 Xrotation Yrotation Zrotation
												End Site
												{
													OFFSET -2.967010 -1.713013 1.713006
												}
											}
										}
									}
								}
								JOINT mixamorig:RightHandIndex1
								{
									OFFSET -14.669403 -0.406464 2.854446
									CHANNELS 6 Xposition Yposition Zposition Xrotation Yrotation Zrotation
									JOINT mixamorig:RightHandIndex2
									{
										OFFSET -3.248596 0.000000 0.000000
										CHANNELS 3 Xrotation Yrotation Zrotation
										JOINT mixamorig:RightHandIndex3
										{
											OFFSET -2.659599 0.000000 0.000000
											CHANNELS 3 Xrotation Yrotation Zrotation
											JOINT mixamorig:RightHandIndex4
											{
												OFFSET -3.633102 0.000000 0.000000
												CHANNELS 3 Xrotation Yrotation Zrotation
												End Site
												{
													OFFSET -3.633102 0.000000 0.000000
												}
											}
										}
									}
								}
								JOINT mixamorig:RightHandMiddle1
								{
									OFFSET -14.409798 0.000000 0.000000
									CHANNELS 6 Xposition Yposition Zposition Xrotation Yrotation Zrotation
									JOINT mixamorig:RightHandMiddle2
									{
										OFFSET -3.259102 0.000000 0.000000
										CHANNELS 3 Xrotation Yrotation Zrotation
										JOINT mixamorig:RightHandMiddle3
										{
											OFFSET -2.639801 0.000000 0.000000
											CHANNELS 3 Xrotation Yrotation Zrotation
											JOINT mixamorig:RightHandMiddle4
											{
												OFFSET -3.673897 0.000000 0.000000
												CHANNELS 3 Xrotation Yrotation Zrotation
												End Site
												{
													OFFSET -3.673904 0.000000 0.000000
												}
											}
										}
									}
								}
								JOINT mixamorig:RightHandRing1
								{
									OFFSET -13.191498 0.330658 -3.304046
									CHANNELS 6 Xposition Yposition Zposition Xrotation Yrotation Zrotation
									JOINT mixamorig:RightHandRing2
									{
										OFFSET -2.717606 0.000000 0.000000
										CHANNELS 3 Xrotation Yrotation Zrotation
										JOINT mixamorig:RightHandRing3
										{
											OFFSET -2.134499 0.000000 0.000000
											CHANNELS 3 Xrotation Yrotation Zrotation
											JOINT mixamorig:RightHandRing4
											{
												OFFSET -2.786797 0.000000 0.000000
												CHANNELS 3 Xrotation Yrotation Zrotation
												End Site
												{
													OFFSET -2.786804 0.000000 0.000000
												}
											}
										}
									}
								}
								JOINT mixamorig:RightHandPinky1
								{
									OFFSET -11.636398 -0.501495 -5.923333
									CHANNELS 6 Xposition Yposition Zposition Xrotation Yrotation Zrotation
									JOINT mixamorig:RightHandPinky2
									{
										OFFSET -1.559303 0.000000 0.000000
										CHANNELS 3 Xrotation Yrotation Zrotation
										JOINT mixamorig:RightHandPinky3
										{
											OFFSET -1.540596 0.000000 0.000000
											CHANNELS 3 Xrotation Yrotation Zrotation
											JOINT mixamorig:RightHandPinky4
											{
												OFFSET -1.668701 0.000000 0.000000
												CHANNELS 3 Xrotation Yrotation Zrotation
												End Site
												{
													OFFSET -1.668701 0.000000 0.000000
												}
											}
										}
									}
								}
							}
						}
					}
				}
			}
		}
	}
	JOINT mixamorig:RightUpLeg
	{
		OFFSET -9.940990 -5.272415 -1.010900
		CHANNELS 6 Xposition Yposition Zposition Xrotation Yrotation Zrotation
		JOINT mixamorig:RightLeg
		{
			OFFSET 0.000000 -43.345264 1.301677
			CHANNELS 3 Xrotation Yrotation Zrotation
			JOINT mixamorig:RightFoot
			{
				OFFSET 0.000000 -44.296967 -4.172008
				CHANNELS 3 Xrotation Yrotation Zrotation
				JOINT mixamorig:RightToeBase
				{
					OFFSET -2.597178 -13.215245 14.785532
					CHANNELS 3 Xrotation Yrotation Zrotation
					JOINT mixamorig:RightToe_End
					{
						OFFSET -1.307599 0.027390 9.914103
						CHANNELS 3 Xrotation Yrotation Zrotation
						End Site
						{
							OFFSET -1.307599 0.027390 9.914103
						}
					}
				}
			}
		}
	}
	JOINT mixamorig:LeftUpLeg
	{
		OFFSET 9.618309 -5.272285 -1.010900
		CHANNELS 6 Xposition Yposition Zposition Xrotation Yrotation Zrotation
		JOINT mixamorig:LeftLeg
		{
			OFFSET 0.000000 -43.345459 1.301683
			CHANNELS 3 Xrotation Yrotation Zrotation
			JOINT mixamorig:LeftFoot
			{
				OFFSET 0.000000 -44.296967 -4.172008
				CHANNELS 3 Xrotation Yrotation Zrotation
				JOINT mixamorig:LeftToeBase
				{
					OFFSET 2.597218 -13.215261 14.785510
					CHANNELS 3 Xrotation Yrotation Zrotation
					JOINT mixamorig:LeftToe_End
					{
						OFFSET 1.307524 0.027409 9.914113
						CHANNELS 3 Xrotation Yrotation Zrotation
						End Site
						{
							OFFSET 1.307524 0.027409 9.914112
						}
					}
				}
			}
		}
	}
}
MOTION
Frames: 4
Frame Time: 0.033333
0.444913 106.116508 -0.318438 -5.475721 -4.699962 -1.664495 -0.038117 9.490503 -1.392100 2.344510 0.195518 0.646657 4.686836 0.416962 1.261558 4.686834 0.416961 1.261558 -0.056882 14.235826 -2.088090 -19.420675 0.185462 -0.361283 0.000004 3.280194 0.313300 13.487792 3.562872 -1.380858 0.000030 25.653519 2.450521 -0.000000 -0.000000 -0.000000 6.728818 11.756613 -2.058488 12.672989 7.217843 -6.412514 0.810594 -36.515089 -69.772978 -0.000001 -27.887818 -0.000042 -19.641640 11.092992 16.563967 4.173396 -1.926474 1.509002 9.609211 12.467736 3.753372 -2.000604 5.419443 0.056563 -0.000004 -0.000006 0.000012 -0.000000 0.000000 0.000001 14.669401 -0.398781 2.855498 0.918523 4.161487 -38.479855 3.112414 -0.947349 -32.781766 -0.000006 -0.000004 0.000000 0.000001 -0.000001 0.000000 14.409801 0.000019 -0.000002 -1.739608 1.894155 -38.750832 -1.538266 -2.965119 -47.704288 -0.000007 -0.000011 0.000010 0.000001 -0.000000 -0.000002 13.191502 0.321989 -3.304904 -6.604575 -1.899762 -38.941661 -5.674147 -4.277509 -66.812555 0.000003 0.000007 -0.000001 -0.000001 -0.000000 0.000000 11.636420 -0.516608 -5.614199 -7.505353 -1.648740 -44.876682 -5.905525 -6.143993 -71.734424 -0.000002 -0.000000 0.000002 -0.000000 -0.000000 0.000001 -6.728786 11.756736 -2.058491 11.546223 8.398556 -1.489057 -5.154749 20.067642 72.643993 -0.000004 31.316714 0.000023 5.524633 -14.215691 -12.178596 -4.173401 -1.930944 1.503949 4.312314 -1.679631 -0.685041 -1.883818 -6.256802 -0.767884 0.000012 -0.000003 -0.000011 -0.000001 -0.000000 -0.000001 -14.669386 -0.406443 2.854448 -1.127543 -6.783486 26.665509 3.205457 0.430050 40.482132 0.000009 -0.000005 0.000007 -0.000001 -0.000002 0.000001 -14.409782 0.000025 0.000000 -2.176647 -4.116154 39.703845 -13.869668 -15.589203 50.034575 -0.000000 0.000000 0.000000 -0.000000 0.000000 0.000000 -13.191494 0.330690 -3.304047 -1.947208 0.926928 43.129086 -5.186556 5.343000 51.959855 -0.000003 -0.000001 0.000001 -0.000003 -0.000001 0.000001 -11.636408 -0.501474 -5.923333 -5.194402 0.069822 48.565920 -8.841291 8.926157 65.312359 0.000000 -0.000000 -0.000000 0.000000 -0.000000 -0.000000 -9.940992 -5.272402 -1.010902 -0.794454 -4.148520 -0.337876 11.430638 0.001888 0.428744 -4.916553 -15.935511 0.689485 -0.020503 -0.187024 0.446697 -0.000000 -0.000002 0.000000 9.618308 -5.272274 -1.010902 -2.732673 13.665370 1.424298 6.604357 -0.014000 -0.253234 1.043049 0.712927 1.945856 0.002984 -0.026203 0.062610 0.000000 -0.000001 -0.000000 
0.470053 106.096481 -0.294599 -5.491791 -4.715100 -1.590616 -0.038117 9.490500 -1.392097 2.367286 0.196014 0.633098 4.732354 0.417264 1.248901 4.732354 0.417265 1.248901 -0.056882 14.235815 -2.088088 -19.469306 0.216420 -0.404369 0.000003 3.280196 0.313306 13.392352 3.707047 -1.430322 0.000030 25.653503 2.450523 -0.000000 0.000000 -0.000000 6.728816 11.756601 -2.058486 12.675188 7.239858 -6.413627 0.639979 -36.555647 -69.822217 -0.001639 -27.821917 -0.000098 -19.677971 11.141095 16.554225 4.173403 -1.926509 1.509008 9.442088 12.267105 3.848821 -1.985523 5.423183 0.061631 -0.000001 -0.000006 0.000012 0.000001 -0.000003 0.000001 14.669397 -0.398783 2.855499 0.987950 4.146150 -39.287689 3.025331 -1.058289 -35.953648 -0.000006 -0.000003 0.000002 0.000001 0.000001 0.000002 14.409803 0.000025 -0.000001 -1.733902 1.841689 -39.555709 -1.662816 -3.074392 -49.733510 -0.000006 -0.000009 0.000009 0.000000 -0.000001 -0.000001 13.191496 0.322008 -3.304903 -6.675853 -1.937165 -39.747487 -5.864352 -4.231783 -69.870677 0.000002 0.000007 -0.000001 -0.000001 0.000001 -0.000000 11.636407 -0.516608 -5.614201 -7.611218 -1.651846 -45.679988 -6.080420 -6.188826 -74.812899 -0.000002 -0.000001 0.000002 0.000001 -0.000000 0.000001 -6.728784 11.756707 -2.058491 11.543464 8.415473 -1.490920 -5.325598 20.152427 72.674285 -0.001396 31.318787 -0.000156 5.423281 -14.363514 -12.336971 -4.173413 -1.930940 1.503949 4.519033 -2.079803 -0.597190 -1.880137 -6.257761 -0.769073 0.000011 -0.000001 -0.000008 0.000001 0.000000 -0.000001 -14.669400 -0.406441 2.854444 -0.998414 -6.817686 27.983710 3.184339 0.451330 41.777719 0.000013 -0.000007 0.000002 0.000001 -0.000003 -0.000000 -14.409810 0.000011 -0.000001 -2.156029 -4.058305 41.013715 -14.032671 -14.740925 50.147741 0.000001 -0.000002 -0.000001 0.000001 -0.000002 -0.000001 -13.191503 0.330676 -3.304047 -2.095555 1.006783 44.430609 -5.180450 5.342244 51.914311 -0.000002 -0.000002 -0.000000 -0.000002 -0.000002 -0.000000 -11.636416 -0.501485 -5.923334 -5.432758 0.120169 49.853209 -8.835365 8.926603 65.270032 -0.000001 -0.000001 -0.000000 -0.000001 -0.000001 -0.000000 -9.940991 -5.272427 -1.010900 -0.905077 -4.383139 -0.487644 11.694857 0.017819 0.440607 -5.054023 -15.681617 0.713542 -0.020544 -0.187494 0.447832 0.000000 -0.000000 0.000000 9.618308 -5.272292 -1.010900 -2.772621 13.732813 1.355483 6.787455 -0.000285 -0.258302 0.832954 0.644309 1.968585 0.003023 -0.026468 0.063270 0.000000 -0.000000 -0.000000 
0.505197 106.081863 -0.268366 -5.531642 -4.734552 -1.499941 -0.038117 9.490483 -1.392101 2.407230 0.198248 0.613922 4.812182 0.420834 1.232107 4.812185 0.420832 1.232108 -0.056883 14.235807 -2.088085 -19.532570 0.242101 -0.439452 0.000004 3.280211 0.313308 13.209249 3.819051 -1.456508 0.000030 25.653503 2.450521 0.000000 -0.000000 0.000000 6.728816 11.756644 -2.058485 12.677240 7.251567 -6.430492 0.321120 -36.578556 -69.934942 -0.004503 -27.741211 -0.000159 -19.658685 11.203763 16.574912 4.173394 -1.926509 1.509006 9.192731 12.033979 3.988515 -1.941684 5.434132 0.076342 -0.000007 -0.000011 0.000011 0.000000 -0.000000 0.000001 14.669411 -0.398783 2.855499 1.041601 4.102308 -39.982486 2.920965 -1.143394 -38.940510 -0.000006 -0.000005 0.000001 -0.000000 -0.000002 -0.000000 14.409816 0.000017 -0.000001 -1.725793 1.774916 -40.248044 -1.777043 -3.168020 -51.542680 -0.000007 -0.000009 0.000008 -0.000000 0.000001 -0.000001 13.191496 0.322004 -3.304901 -6.736661 -1.953474 -40.444040 -6.023726 -4.186507 -72.742157 0.000003 0.000007 0.000000 -0.000001 -0.000000 0.000001 11.636418 -0.516611 -5.614202 -7.683789 -1.629168 -46.376605 -6.241140 -6.242702 -77.732703 -0.000002 -0.000000 -0.000001 0.000000 -0.000000 0.000001 -6.728782 11.756732 -2.058489 11.539387 8.442839 -1.486634 -5.779087 20.329484 72.780611 -0.001946 30.788795 -0.000722 5.230020 -14.382700 -12.637241 -4.173397 -1.930956 1.503949 4.700506 -2.473188 -0.517201 -1.866923 -6.261234 -0.773333 0.000012 0.000001 -0.000006 -0.000002 -0.000001 0.000002 -14.669394 -0.406444 2.854447 -0.869038 -6.840236 29.299698 3.158191 0.466396 43.034720 0.000009 -0.000006 0.000004 -0.000001 -0.000001 -0.000000 -14.409798 0.000006 -0.000001 -2.135829 -3.993963 42.320948 -14.188869 -13.889123 50.213433 0.000000 0.000002 0.000000 0.000000 0.000002 0.000000 -13.191513 0.330670 -3.304047 -2.244836 1.079502 45.730818 -5.164672 5.340652 51.823271 0.000000 0.000003 -0.000000 0.000000 0.000003 -0.000000 -11.636423 -0.501489 -5.923331 -5.665739 0.159422 51.140406 -8.821777 8.931210 65.190932 -0.000001 -0.000000 -0.000000 -0.000001 -0.000000 -0.000000 -9.940991 -5.272416 -1.010902 -0.984991 -4.620002 -0.666006 11.939754 0.039970 0.452287 -5.179595 -15.428798 0.745970 -0.020589 -0.187845 0.448685 -0.000000 -0.000002 0.000000 9.618308 -5.272285 -1.010902 -2.727152 13.860766 1.248617 6.867375 0.026249 -0.258477 0.667546 0.503266 1.998778 0.003039 -0.026633 0.063666 0.000000 -0.000002 -0.000000 
0.550321 106.075821 -0.227678 -5.553386 -4.759875 -1.404319 -0.038116 9.490490 -1.392099 2.453456 0.205104 0.592838 4.904519 0.433557 1.211563 4.904522 0.433559 1.211563 -0.056883 14.235781 -2.088084 -19.607238 0.260500 -0.467757 0.000004 3.280185 0.313303 12.943454 3.886945 -1.458270 0.000030 25.653519 2.450522 -0.000000 0.000000 0.000000 6.728817 11.756584 -2.058485 12.678078 7.245921 -6.459832 0.164776 -36.541813 -69.923584 -0.007911 -27.668596 -0.000239 -19.712790 11.398832 16.664183 4.173382 -1.926502 1.509001 8.867754 11.770599 4.167460 -1.871130 5.451776 0.099942 -0.000005 -0.000006 0.000012 -0.000001 -0.000002 0.000001 14.669411 -0.398781 2.855502 1.079309 4.032478 -40.566744 2.804060 -1.201652 -41.734863 -0.000007 -0.000005 -0.000001 0.000000 -0.000003 0.000000 14.409794 0.000024 -0.000001 -1.715788 1.695060 -40.830301 -1.879858 -3.247338 -53.133882 -0.000007 -0.000008 0.000010 -0.000000 0.000001 0.000001 13.191492 0.322002 -3.304902 -6.786760 -1.950337 -41.033625 -6.154014 -4.145430 -75.420472 0.000003 0.000007 -0.000001 0.000001 -0.000000 -0.000001 11.636402 -0.516609 -5.614200 -7.723897 -1.583685 -46.968626 -6.389822 -6.306411 -80.485419 -0.000003 -0.000000 -0.000001 -0.000001 -0.000000 -0.000001 -6.728784 11.756720 -2.058490 11.534429 8.473004 -1.495383 -6.199733 20.501460 72.876192 -0.003272 30.334403 -0.001210 5.016680 -14.485902 -12.947868 -4.173412 -1.930935 1.503955 4.847233 -2.856469 -0.449108 -1.840938 -6.268055 -0.781685 0.000011 -0.000001 -0.000008 0.000004 0.000002 -0.000001 -14.669400 -0.406442 2.854448 -0.742652 -6.847385 30.588046 3.126207 0.472619 44.215674 0.000015 -0.000006 0.000002 0.000002 -0.000001 -0.000000 -14.409802 0.000013 -0.000000 -2.116503 -3.921930 43.600349 -14.339632 -13.037007 50.193435 -0.000001 0.000001 -0.000001 -0.000001 0.000001 -0.000001 -13.191490 0.330668 -3.304044 -2.391364 1.142146 47.005078 -5.134205 5.337561 51.650840 -0.000001 0.000001 -0.000000 -0.000001 0.000001 -0.000000 -11.636421 -0.501480 -5.923332 -5.885802 0.184932 52.403626 -8.795716 8.940514 65.042000 0.000001 -0.000002 -0.000000 0.000001 -0.000002 -0.000000 -9.940989 -5.272390 -1.010901 -1.041968 -4.823709 -0.848249 12.113611 0.065001 0.461353 -5.274141 -15.211420 0.787259 -0.020591 -0.187941 0.448927 -0.000000 -0.000001 -0.000000 9.618308 -5.272271 -1.010902 -2.623022 13.909090 1.103296 6.826267 0.059022 -0.253566 0.560425 0.438056 2.029005 0.003028 -0.026653 0.063698 0.000000 0.000001 -0.000000 
